<svg xmlns="http://www.w3.org/2000/svg" viewBox="0 0 60 60">
  <path d="M26.5 19.5a1.5 1.5 0 01.144 2.993l-.144.007H19v18h18V33a1.5 1.5 0 011.356-1.493l.144-.007a1.5 1.5 0 011.493 1.356L40 33v9a1.5 1.5 0 01-1.356 1.493l-.144.007h-21a1.5 1.5 0 01-1.493-1.356L16 42V21a1.5 1.5 0 011.356-1.493l.144-.007h9zm15.303-3.303c.059 0 .117.003.174.01l.148.024.146.04.12.045.067.03.117.064a1.504 1.504 0 01.289.226l.109.121c.042.053.081.11.117.168l.05.09.045.098.046.124.038.139.012.06.017.14.005.12v6.365a1.5 1.5 0 01-2.992.153l-.008-.153v-2.742l-8.046 8.045a1.5 1.5 0 01-2.218-2.014l.097-.107 8.047-8.046h-2.744a1.5 1.5 0 01-.153-2.993l.153-.007h6.364z" fill="currentColor" fill-rule="nonzero"/>
</svg>
